HIERARCHY
ROOT Hips
{
    OFFSET 0.000000 0.000000 0.000000
    CHANNELS 6 Xposition Yposition Zposition Zrotation Xrotation Yrotation
    JOINT Spine
    {
        OFFSET -0.000000 14.517291 0.000000
        CHANNELS 3 Zrotation Xrotation Yrotation
        JOINT Spine1
        {
            OFFSET -0.000000 37.558300 0.000000
            CHANNELS 3 Zrotation Xrotation Yrotation
            JOINT Neck
            {
                OFFSET -0.000000 37.404057 3.400369
                CHANNELS 3 Zrotation Xrotation Yrotation
                JOINT Head
                {
                    OFFSET -0.000000 24.785618 -3.540803
                    CHANNELS 3 Zrotation Xrotation Yrotation
                    End Site
                    {
                        OFFSET -0.000000 35.408028 0.000000
                    }
                }
            }
            JOINT LeftShoulder
            {
                OFFSET 6.992933 33.973492 -0.192664
                CHANNELS 3 Zrotation Xrotation Yrotation
                JOINT LeftArm
                {
                    OFFSET 21.527611 0.000000 0.000000
                    CHANNELS 3 Zrotation Xrotation Yrotation
                    JOINT LeftForeArm
                    {
                        OFFSET 56.353916 0.000000 0.000000
                        CHANNELS 3 Zrotation Xrotation Yrotation
                        JOINT LeftHand
                        {
                            OFFSET 47.774071 0.000000 0.000000
                            CHANNELS 3 Zrotation Xrotation Yrotation
                            End Site
                            {
                                OFFSET 26.556021 0.000000 0.000000
                            }
                        }
                    }
                }
            }
            JOINT RightShoulder
            {
                OFFSET -7.065357 33.973492 -0.192664
                CHANNELS 3 Zrotation Xrotation Yrotation
                JOINT RightArm
                {
                    OFFSET -21.527611 0.000000 0.000000
                    CHANNELS 3 Zrotation Xrotation Yrotation
                    JOINT RightForeArm
                    {
                        OFFSET -56.353916 0.000000 0.000000
                        CHANNELS 3 Zrotation Xrotation Yrotation
                        JOINT RightHand
                        {
                            OFFSET -47.774071 0.000000 0.000000
                            CHANNELS 3 Zrotation Xrotation Yrotation
                            End Site
                            {
                                OFFSET -26.556021 0.000000 0.000000
                            }
                        }
                    }
                }
            }
        }
    }
    JOINT LeftUpLeg
    {
        OFFSET 17.704014 0.000000 0.000000
        CHANNELS 3 Zrotation Xrotation Yrotation
        JOINT LeftLeg
        {
            OFFSET -0.000000 -81.181816 0.000000
            CHANNELS 3 Zrotation Xrotation Yrotation
            JOINT LeftFoot
            {
                OFFSET -0.000000 -62.821102 0.000000
                CHANNELS 3 Zrotation Xrotation Yrotation
                JOINT LeftToeBase
                {
                    OFFSET -0.000000 -11.507608 26.556021
                    CHANNELS 3 Zrotation Xrotation Yrotation
                    End Site
                    {
                        OFFSET -0.000000 0.000000 7.081605
                    }
                }
            }
        }
    }
    JOINT RightUpLeg
    {
        OFFSET -17.704014 0.000000 0.000000
        CHANNELS 3 Zrotation Xrotation Yrotation
        JOINT RightLeg
        {
            OFFSET -0.000000 -81.181816 0.000000
            CHANNELS 3 Zrotation Xrotation Yrotation
            JOINT RightFoot
            {
                OFFSET -0.000000 -62.821102 0.000000
                CHANNELS 3 Zrotation Xrotation Yrotation
                JOINT RightToeBase
                {
                    OFFSET -0.000000 -11.507608 26.556021
                    CHANNELS 3 Zrotation Xrotation Yrotation
                    End Site
                    {
                        OFFSET -0.000000 0.000000 7.081605
                    }
                }
            }
        }
    }
}
MOTION
Frames:    13
Frame Time:    0.008333
16.162792    152.449585    -106.600861    1.650804    -5.136202    30.120090    -1.371983    0.640404    0.615807    -4.094302    2.241548    0.282410    5.206550    2.637230    -13.902802    11.500061    1.437969    -13.665629    5.505217    8.343090    -17.601662    -26.703381    22.970036    -59.277092    -2.755424    -11.036689    -100.860809    9.024160    -15.163788    -11.401894    -9.331261    -1.553833    -2.326417    24.684616    -24.880171    53.483463    -19.792494    -13.334345    61.228863    -3.802720    -2.891713    37.977306    13.994133    -2.559916    -0.820534    -14.780398    40.159622    -16.653427    8.403910    -30.561714    44.300484    0.000000    0.000000    0.000000    -23.504122    -12.873124    -30.401155    10.476902    21.726229    -19.503475    2.881161    -0.499897    -31.899591    0.000000    0.000000    0.000000    
16.198402    152.488251    -106.643990    1.666340    -5.137785    30.232098    -1.440221    0.622298    0.592442    -4.053112    2.262671    0.274477    5.233913    2.633823    -13.921457    11.474371    1.455373    -13.693775    5.528932    8.360142    -17.641041    -26.701586    22.956104    -59.277760    -2.711423    -11.010328    -100.838814    9.128195    -15.089321    -11.327323    -9.324473    -1.583241    -2.339028    24.649166    -24.850010    53.424358    -19.807890    -13.347042    61.274052    -3.829416    -2.890981    37.904644    13.971096    -2.550672    -0.838099    -14.724353    40.075233    -16.767981    8.412643    -30.505796    44.278233    0.000000    0.000000    0.000000    -23.480484    -12.937161    -29.956905    10.471274    21.765799    -19.403116    2.795550    -0.714603    -31.829254    0.000000    0.000000    0.000000    
16.231358    152.530502    -106.686783    1.684288    -5.136103    30.343275    -0.808762    0.195156    0.810187    -5.744955    3.607832    0.449929    6.747303    1.140498    -13.938256    10.905621    1.839696    -14.101669    7.540259    7.601663    -17.112242    -26.610828    23.199255    -60.876812    -2.379506    -11.664490    -100.664665    9.081178    -15.311614    -11.062994    -8.428848    -2.447354    -3.434275    24.306787    -24.242666    53.681602    -20.274916    -14.011955    60.687904    -3.602368    -3.360069    38.161888    13.947592    -2.545581    -0.851469    -14.681742    39.989372    -16.825212    8.389190    -30.440210    44.216316    0.000000    0.000000    0.000000    -23.446917    -13.001976    -29.442459    10.468000    21.784452    -19.360090    2.813910    -1.038508    -31.724417    0.000000    0.000000    0.000000    
16.258644    152.575546    -106.729759    1.698603    -5.122507    30.460550    -1.201084    0.377579    0.085910    -4.421972    2.497341    0.125218    4.827472    2.968852    -13.748208    11.986316    1.349938    -13.370466    5.248516    8.314758    -17.169786    -26.360506    23.067514    -58.922382    -2.675670    -11.167313    -101.048492    9.105236    -15.204196    -11.235045    -9.407693    -1.569093    -1.500163    24.884127    -25.114166    53.301163    -19.776730    -13.210044    61.533287    -3.873292    -2.718865    37.793270    13.925524    -2.553997    -0.894716    -14.661186    39.892212    -16.883215    8.370888    -30.371359    44.183548    0.000000    0.000000    0.000000    -23.410666    -13.089345    -28.989235    10.422882    21.832233    -19.289162    2.866395    -1.383215    -31.567617    0.000000    0.000000    0.000000    
16.280642    152.618378    -106.779030    1.702877    -5.105859    30.580173    -1.624609    0.570304    0.477249    -3.958121    2.321050    0.236181    5.252255    2.667790    -14.020576    11.501929    1.408594    -13.790111    5.583680    8.343417    -17.629395    -26.689699    22.981997    -59.278637    -2.739737    -10.897640    -100.861618    9.117641    -15.005208    -11.241811    -9.258422    -1.602686    -2.389903    24.481117    -24.796169    53.340672    -19.947882    -13.459098    61.345818    -3.755561    -2.880655    37.998207    13.919167    -2.578023    -0.919298    -14.648799    39.808350    -16.958879    8.360410    -30.298019    44.145653    0.000000    0.000000    0.000000    -23.383011    -13.198590    -28.480082    10.414507    21.893831    -19.092512    2.885336    -1.599379    -31.567135    0.000000    0.000000    0.000000    
16.295170    152.664047    -106.827637    1.703620    -5.092894    30.707138    -1.684684    0.556727    0.448209    -3.923902    2.335118    0.226263    5.266866    2.676796    -14.065000    11.511678    1.383041    -13.834236    5.625949    8.345261    -17.652756    -26.669630    22.995842    -59.292381    -2.719300    -10.901638    -100.870186    9.102149    -14.980317    -11.191646    -9.239409    -1.627251    -2.422307    24.445093    -24.804838    53.301586    -19.931543    -13.457187    61.424709    -3.765523    -2.870924    37.936970    13.920228    -2.616293    -0.947780    -14.647912    39.746246    -17.016008    8.336406    -30.227308    44.112232    0.000000    0.000000    0.000000    -23.327330    -13.288951    -27.929188    10.398371    21.895126    -19.007759    2.927705    -1.880619    -31.484329    0.000000    0.000000    0.000000    
16.304060    152.704285    -106.874863    1.701417    -5.089180    30.831221    -1.741720    0.568336    0.419731    -3.875472    2.327353    0.215485    5.290512    2.704791    -14.101541    11.500392    1.310024    -13.868315    5.653288    8.347090    -17.679703    -26.658522    23.012024    -59.286041    -2.679194    -10.898466    -100.885002    9.161104    -14.931555    -11.124462    -9.242541    -1.647344    -2.465771    24.404999    -24.779947    53.264587    -19.936100    -13.489550    61.498352    -3.810068    -2.895858    37.852123    13.931360    -2.653912    -0.987769    -14.648149    39.696598    -17.102282    8.342152    -30.147829    44.107101    0.000000    0.000000    0.000000    -23.257515    -13.384959    -27.417068    10.342619    21.909138    -18.892443    2.956682    -2.104677    -31.370369    0.000000    0.000000    0.000000    
16.307808    152.743561    -106.916214    1.689214    -5.094049    30.943602    -1.781586    0.573992    0.396973    -3.828632    2.333869    0.206951    5.306051    2.729409    -14.150954    11.482440    1.240191    -13.916146    5.667656    8.340797    -17.716305    -26.617886    23.047436    -59.262264    -2.631050    -10.950455    -100.916031    9.084693    -14.918218    -11.091134    -9.258169    -1.661784    -2.496244    24.409647    -24.816278    53.236145    -19.913010    -13.462029    61.573341    -3.809293    -2.863969    37.859234    13.959394    -2.680236    -1.046125    -14.679396    39.629234    -17.128595    8.344393    -30.079100    44.081879    0.000000    0.000000    0.000000    -23.171396    -13.479263    -26.836952    10.310690    21.924946    -18.779413    3.024018    -2.326230    -31.328228    0.000000    0.000000    0.000000    
16.305784    152.779648    -106.953117    1.680264    -5.111928    31.055845    -1.464308    0.371229    -0.043895    -4.211458    2.577515    0.076221    4.967847    3.008381    -13.946218    11.887455    1.079925    -13.578172    5.431666    8.278053    -17.265526    -26.273146    23.147676    -58.945335    -2.608844    -11.208614    -101.137711    8.986210    -15.148093    -11.078189    -9.407110    -1.671969    -1.715959    24.772686    -25.142324    53.180763    -19.822392    -13.215073    61.799866    -3.907414    -2.645104    37.837715    13.994208    -2.696779    -1.130620    -14.730519    39.568604    -17.132734    8.360129    -30.008516    44.073071    0.000000    0.000000    0.000000    -23.053276    -13.553231    -26.249184    10.237332    21.912361    -18.769310    3.091387    -2.536772    -31.164284    0.000000    0.000000    0.000000    
16.296844    152.814575    -106.990646    1.666725    -5.126133    31.174202    -1.515519    0.405495    -0.061166    -4.155766    2.574399    0.068465    4.985739    3.006933    -13.992644    11.904156    1.018775    -13.620568    5.463140    8.269188    -17.309080    -26.314850    23.113028    -58.915298    -2.569241    -11.109108    -101.140747    9.108191    -15.012302    -11.040094    -9.386481    -1.693033    -1.767041    24.758171    -25.173460    53.157928    -19.800005    -13.221353    61.888866    -3.900793    -2.643996    37.892574    14.026765    -2.721863    -1.201977    -14.749980    39.508656    -17.176224    8.355822    -29.958147    44.072899    0.000000    0.000000    0.000000    -22.949957    -13.642898    -25.775251    10.151482    21.947741    -18.574903    3.197769    -2.775199    -31.140310    0.000000    0.000000    0.000000    
16.279306    152.851700    -107.033958    1.657628    -5.132171    31.303827    -1.564399    0.441672    -0.098889    -4.113273    2.561855    0.055869    4.999050    3.010021    -14.040809    11.926563    0.977175    -13.665279    5.494186    8.266712    -17.332535    -26.309208    23.099812    -58.907490    -2.576305    -11.093188    -101.150864    9.131839    -15.007387    -11.036627    -9.382371    -1.693170    -1.803726    24.771385    -25.220490    53.158520    -19.782639    -13.217140    61.972954    -3.929634    -2.638325    37.838417    14.048066    -2.762678    -1.268156    -14.753774    39.457481    -17.235598    8.370384    -29.881296    44.079655    0.000000    0.000000    0.000000    -22.855301    -13.729877    -25.190653    10.105369    21.965508    -18.490747    3.264559    -2.998299    -31.060417    0.000000    0.000000    0.000000    
16.263815    152.887955    -107.074974    1.646123    -5.146946    31.432440    -1.592513    0.469549    -0.142711    -4.078584    2.581996    0.041309    4.991981    2.997460    -14.089645    11.957275    0.941810    -13.708451    5.508843    8.234414    -17.337448    -26.277401    23.103695    -58.902592    -2.526361    -11.099517    -101.141853    9.118378    -14.949653    -10.993150    -9.379936    -1.711765    -1.849712    24.748581    -25.216364    53.169350    -19.788029    -13.283498    62.019566    -3.880020    -2.671314    37.742287    14.069205    -2.794765    -1.316233    -14.723777    39.415100    -17.307821    8.360398    -29.827450    44.051472    0.000000    0.000000    0.000000    -22.741671    -13.791707    -24.606733    10.043989    21.933464    -18.307188    3.298094    -3.100182    -30.964043    0.000000    0.000000    0.000000    
16.247051    152.925644    -107.114998    1.633775    -5.149609    31.561106    -1.640324    0.498961    -0.171285    -4.025649    2.578657    0.030300    4.987100    2.981840    -14.136414    11.992907    0.923960    -13.750999    5.517108    8.209779    -17.376663    -26.256952    23.104378    -58.892063    -2.439347    -11.077389    -101.109741    9.140832    -14.819800    -10.914742    -9.381254    -1.711291    -1.921417    24.765554    -25.231060    53.202446    -19.830044    -13.296679    62.053650    -3.831257    -2.632219    37.703873    14.083861    -2.830099    -1.378790    -14.709709    39.345146    -17.346130    8.364378    -29.756693    44.033215    0.000000    0.000000    0.000000    -22.641720    -13.867538    -24.046148    9.997019    21.915182    -18.214390    3.373180    -3.302746    -30.893778    0.000000    0.000000    0.000000    
